<svg width="109" height="40" viewBox="0 0 109 40" fill="none" xmlns="http://www.w3.org/2000/svg">
<path fill-rule="evenodd" clip-rule="evenodd" d="M71.1896 27.8451V7.29325C71.1896 0.318896 78.5161 -1.17989 83.7451 0.810027V4.71647C80.1511 3.25163 76.1129 3.58925 76.1129 8.13729H81.9569V12.0373H76.1129V27.7689L71.1896 27.8451Z" fill="#FFB612"/>
<path fill-rule="evenodd" clip-rule="evenodd" d="M94.4632 5.20182H98.1104L98.859 8.24865H103.396V12.1459H99.4004V21.2182C99.4004 23.0363 100.188 23.9491 101.763 23.9491H104.263V27.8451H99.3805C96.1016 27.8451 94.4632 26.0963 94.4632 22.5926V5.20182Z" fill="#FFB612"/>
<path fill-rule="evenodd" clip-rule="evenodd" d="M85.8887 8.26172H90.7884V27.8451H85.8887V8.26172Z" fill="#FFB612"/>
<path fill-rule="evenodd" clip-rule="evenodd" d="M85.8887 0.917966H90.7884V4.89583H85.8887V0.917966Z" fill="#FFB612"/>
<path fill-rule="evenodd" clip-rule="evenodd" d="M108.244 27.846C103.906 34.6484 96.2682 39.1667 87.5714 39.1667C78.8753 39.1667 71.2383 34.6484 66.9024 27.8451C71.9993 32.5151 79.3721 35.4508 87.5714 35.4508C95.7723 35.4508 103.146 32.5151 108.244 27.846Z" fill="#FFB612"/>
<path fill-rule="evenodd" clip-rule="evenodd" d="M59.2466 8.87378H61.6207L62.1092 10.9625H65.065V13.5436H62.4614V19.4791C62.4614 20.6827 62.9746 21.2874 64.0009 21.2874H65.065V23.8673H62.4501C60.3146 23.8673 59.2466 22.7097 59.2466 20.3893V8.87378ZM50.6721 23.8673V11.0157H53.1615L53.5577 12.6542C54.6767 11.5638 55.8569 11.0157 57.103 11.0157V13.6354C55.9054 13.6354 54.8333 14.1792 53.889 15.2603V23.8673H50.6721ZM44.2412 18.6123C43.4409 18.4424 42.4701 18.3595 41.321 18.3595C39.7987 18.3595 39.0353 18.8695 39.0353 19.8872C39.0353 20.9096 39.6734 21.4194 40.9508 21.4194C42.241 21.4194 43.3393 21.0717 44.2412 20.3755V18.6123ZM35.6668 19.8647C35.6668 17.2294 37.5462 15.913 41.31 15.913C42.4382 15.913 43.4491 15.9923 44.3322 16.1544V15.3107C44.3322 14.1619 43.2034 13.5861 40.9516 13.5861C39.5332 13.5861 38.1207 13.7901 36.7188 14.1991V11.6259C38.1207 11.2202 39.5332 11.0157 40.9516 11.0157C45.3926 11.0157 47.6098 12.4278 47.6098 15.2489V23.8673H45.9509L44.5384 22.9602C43.4102 23.5671 42.2064 23.8673 40.9267 23.8673C37.4193 23.8673 35.6668 22.5345 35.6668 19.8647ZM13.9244 23.8673V11.0157H16.4218L16.7986 12.6326C18.2651 11.5543 19.7237 11.0157 21.1651 11.0157C22.7732 11.0157 23.9155 11.6013 24.5883 12.7787C26.2166 11.6013 27.7455 11.0157 29.1734 11.0157C31.8694 11.0157 33.2169 12.6413 33.2169 15.8991V23.8673H29.9879V15.7746C29.9879 14.3499 29.3906 13.6354 28.1902 13.6354C27.2304 13.6354 26.2291 14.1902 25.1816 15.2987V23.8673H21.9587V15.8124C21.9587 14.3628 21.3654 13.6354 20.1818 13.6354C19.1582 13.6354 18.1489 14.1902 17.1534 15.2987V23.8673H13.9244ZM1.37525 23.1322V20.4246C2.82088 20.9995 4.49002 21.2857 6.38141 21.2857C7.7928 21.2857 8.49912 20.8357 8.49912 19.934C8.49912 19.1112 8.02129 18.7038 7.07403 18.7038H4.71881C2.07534 18.7038 0.756409 17.3896 0.756409 14.7641C0.756409 12.0614 2.68547 10.7097 6.54173 10.7097C8.17849 10.7097 9.71626 10.9527 11.1634 11.4438V14.1518C9.71626 13.5766 8.14892 13.2919 6.45301 13.2919C4.6771 13.2919 3.79304 13.7413 3.79304 14.6433C3.79304 15.4621 4.30978 15.8731 5.34077 15.8731H7.44571C10.3339 15.8731 11.7807 17.1831 11.7807 19.8064C11.7807 22.5153 9.9407 23.8673 6.25783 23.8673C4.4483 23.8673 2.82088 23.624 1.37525 23.1322Z" fill="black"/>
</svg>
